<svg xmlns="http://www.w3.org/2000/svg" viewBox="0 0 1600 1000" preserveAspectRatio="xMidYMid slice">
  <defs>
    <linearGradient id="bg" x1="0" y1="0" x2="1" y2="1">
      <stop offset="0" stop-color="#225862"/>
      <stop offset="1" stop-color="#143a42"/>
    </linearGradient>
    <radialGradient id="glow" cx="1450" cy="910" r="1152" gradientUnits="userSpaceOnUse">
      <stop offset="0" stop-color="rgba(140, 200, 210, 0.20)"/>
      <stop offset="1" stop-color="rgba(140, 200, 210, 0)"/>
    </radialGradient>
  </defs>
  <rect width="1600" height="1000" fill="url(#bg)"/>
  <rect width="1600" height="1000" fill="url(#glow)"/>
  <g stroke="#dff0f3" fill="none" stroke-linecap="round">
    <path d="M 1450 910 C 1378 268, 1203 -665, 813 -1570" opacity="0.070" stroke-width="1.05"/>
    <path d="M 1450 910 C 1369 266, 1167 -663, 708 -1540" opacity="0.082" stroke-width="1.01"/>
    <path d="M 1450 910 C 1357 265, 1127 -658, 604 -1506" opacity="0.094" stroke-width="0.89"/>
    <path d="M 1450 910 C 1341 265, 1079 -651, 501 -1468" opacity="0.106" stroke-width="0.72"/>
    <path d="M 1450 910 C 1319 267, 1023 -638, 400 -1425" opacity="0.118" stroke-width="0.55"/>
    <path d="M 1450 910 C 1292 273, 957 -618, 302 -1378" opacity="0.129" stroke-width="0.42"/>
    <path d="M 1450 910 C 1259 284, 882 -590, 205 -1327" opacity="0.140" stroke-width="0.35"/>
    <path d="M 1450 910 C 1222 299, 801 -554, 110 -1271" opacity="0.151" stroke-width="0.37"/>
    <path d="M 1450 910 C 1182 319, 715 -509, 18 -1212" opacity="0.162" stroke-width="0.47"/>
    <path d="M 1450 910 C 1142 342, 629 -457, -71 -1149" opacity="0.172" stroke-width="0.63"/>
    <path d="M 1450 910 C 1103 368, 547 -401, -158 -1082" opacity="0.182" stroke-width="0.80"/>
    <path d="M 1450 910 C 1068 394, 470 -342, -242 -1011" opacity="0.191" stroke-width="0.95"/>
    <path d="M 1450 910 C 1037 419, 403 -285, -322 -937" opacity="0.199" stroke-width="1.04"/>
    <path d="M 1450 910 C 1012 442, 345 -231, -400 -860" opacity="0.207" stroke-width="1.04"/>
    <path d="M 1450 910 C 993 461, 298 -183, -474 -779" opacity="0.215" stroke-width="0.96"/>
    <path d="M 1450 910 C 978 475, 259 -142, -544 -695" opacity="0.222" stroke-width="0.82"/>
    <path d="M 1450 910 C 968 486, 228 -107, -611 -609" opacity="0.228" stroke-width="0.65"/>
    <path d="M 1450 910 C 959 493, 201 -78, -674 -519" opacity="0.233" stroke-width="0.49"/>
    <path d="M 1450 910 C 952 498, 177 -51, -733 -427" opacity="0.238" stroke-width="0.38"/>
    <path d="M 1450 910 C 944 503, 153 -23, -788 -332" opacity="0.242" stroke-width="0.35"/>
    <path d="M 1450 910 C 934 511, 126 8, -839 -235" opacity="0.245" stroke-width="0.41"/>
    <path d="M 1450 910 C 922 522, 97 47, -886 -136" opacity="0.247" stroke-width="0.53"/>
    <path d="M 1450 910 C 909 539, 66 96, -929 -36" opacity="0.249" stroke-width="0.70"/>
    <path d="M 1450 910 C 893 563, 32 156, -967 67" opacity="0.250" stroke-width="0.87"/>
    <path d="M 1450 910 C 877 594, -2 229, -1001 171" opacity="0.250" stroke-width="1.00"/>
    <path d="M 1450 910 C 861 631, -36 312, -1030 277" opacity="0.249" stroke-width="1.05"/>
    <path d="M 1450 910 C 846 673, -66 405, -1055 383" opacity="0.247" stroke-width="1.02"/>
    <path d="M 1450 910 C 833 718, -91 502, -1075 491" opacity="0.245" stroke-width="0.91"/>
    <path d="M 1450 910 C 823 763, -111 600, -1091 599" opacity="0.242" stroke-width="0.75"/>
    <path d="M 1450 910 C 816 806, -125 694, -1102 708" opacity="0.238" stroke-width="0.58"/>
    <path d="M 1450 910 C 812 845, -134 782, -1108 818" opacity="0.233" stroke-width="0.43"/>
    <path d="M 1450 910 C 810 879, -138 860, -1110 927" opacity="0.228" stroke-width="0.36"/>
    <path d="M 1450 910 C 809 906, -138 927, -1107 1037" opacity="0.222" stroke-width="0.36"/>
    <path d="M 1450 910 C 809 926, -137 983, -1099 1146" opacity="0.215" stroke-width="0.45"/>
    <path d="M 1450 910 C 808 941, -136 1029, -1087 1255" opacity="0.207" stroke-width="0.60"/>
    <path d="M 1450 910 C 807 951, -134 1069, -1070 1363" opacity="0.199" stroke-width="0.78"/>
    <path d="M 1450 910 C 805 960, -133 1105, -1048 1470" opacity="0.191" stroke-width="0.93"/>
    <path d="M 1450 910 C 803 970, -131 1142, -1022 1576" opacity="0.182" stroke-width="1.03"/>
    <path d="M 1450 910 C 802 982, -128 1183, -991 1682" opacity="0.172" stroke-width="1.05"/>
    <path d="M 1450 910 C 801 999, -122 1231, -956 1785" opacity="0.162" stroke-width="0.98"/>
    <path d="M 1450 910 C 803 1021, -111 1289, -916 1887" opacity="0.151" stroke-width="0.84"/>
    <path d="M 1450 910 C 809 1049, -93 1356, -872 1988" opacity="0.140" stroke-width="0.67"/>
    <path d="M 1450 910 C 819 1083, -66 1433, -824 2086" opacity="0.129" stroke-width="0.51"/>
    <path d="M 1450 910 C 833 1121, -32 1516, -772 2182" opacity="0.118" stroke-width="0.39"/>
    <path d="M 1450 910 C 852 1161, 11 1604, -715 2276" opacity="0.106" stroke-width="0.35"/>
    <path d="M 1450 910 C 874 1202, 60 1691, -655 2367" opacity="0.094" stroke-width="0.39"/>
    <path d="M 1450 910 C 898 1242, 114 1775, -590 2456" opacity="0.082" stroke-width="0.51"/>
    <path d="M 1450 910 C 923 1277, 170 1853, -523 2542" opacity="0.070" stroke-width="0.68"/>
  </g>
</svg>
